<?xml version="1.0" encoding="UTF-8" standalone="no"?><svg xmlns="http://www.w3.org/2000/svg" xmlns:xlink="http://www.w3.org/1999/xlink" clip-rule="evenodd" stroke-miterlimit="4.00" viewBox="0 0 1024 768"><desc>SVG generated by Keynote</desc><defs></defs><g transform="matrix(1.00, 0.00, -0.00, -1.00, 0.0, 768.0)"><g><clipPath id="clip-2"><path d="M 0.0 768.0 L 1024.0 768.0 L 1024.0 0.0 L 0.0 0.0 Z M 0.0 768.0 "></path></clipPath><g clip-path="url(#clip-2)"><image xlink:href="../../3D4F7F8A-0468-49B4-AEC0-CF170E8069FD/assets/18A399082FD764973FCFCD34E6C980B9.jpeg" width="950.00" height="534.00" transform="matrix(1.44, 0.00, -0.00, -1.44, -171.1, 768.0)"></image><path d="M 0.0 768.0 L 1024.0 768.0 L 1024.0 0.0 L 0.0 0.0 Z M 0.0 768.0 " fill="#212121" fill-opacity="0.80"></path></g></g><path d="M 0.0 0.0 L 960.0 0.0 " fill="none" stroke="#A6AAA9" stroke-width="2.00" transform="matrix(1.00, 0.00, 0.00, -1.00, 32.0, 689.8)"></path><path d="M 46.8 582.0 C 41.4 582.0 37.0 577.6 37.0 572.2 L 37.0 223.8 C 37.0 218.4 41.4 214.0 46.8 214.0 L 794.7 214.0 L 822.1 170.2 L 849.4 214.0 L 977.2 214.0 C 982.6 214.0 987.0 218.4 987.0 223.8 L 987.0 572.2 C 987.0 577.6 982.6 582.0 977.2 582.0 L 46.8 582.0 Z M 46.8 582.0 " fill="#34A4DA"></path><text xml:space="preserve" font-family="DINCondensed-Bold" font-weight="bold" font-size="56.0" fill="#FFFFFF" transform="matrix(1.00, 0.00, -0.00, -1.00, 74.0, 495.0)">I</text><text xml:space="preserve" font-family="DINCondensed-Bold" font-weight="bold" font-size="56.0" fill="#FFFFFF" transform="matrix(1.00, 0.00, -0.00, -1.00, 85.4, 495.0)">N</text><text xml:space="preserve" font-family="DINCondensed-Bold" font-weight="bold" font-size="56.0" fill="#FFFFFF" transform="matrix(1.00, 0.00, -0.00, -1.00, 110.3, 495.0)">T</text><text xml:space="preserve" font-family="DINCondensed-Bold" font-weight="bold" font-size="56.0" fill="#FFFFFF" transform="matrix(1.00, 0.00, -0.00, -1.00, 128.9, 495.0)">E</text><text xml:space="preserve" font-family="DINCondensed-Bold" font-weight="bold" font-size="56.0" fill="#FFFFFF" transform="matrix(1.00, 0.00, -0.00, -1.00, 149.6, 495.0)">R</text><text xml:space="preserve" font-family="DINCondensed-Bold" font-weight="bold" font-size="56.0" fill="#FFFFFF" transform="matrix(1.00, 0.00, -0.00, -1.00, 173.5, 495.0)">N</text><text xml:space="preserve" font-family="DINCondensed-Bold" font-weight="bold" font-size="56.0" fill="#FFFFFF" transform="matrix(1.00, 0.00, -0.00, -1.00, 198.3, 495.0)">E</text><text xml:space="preserve" font-family="DINCondensed-Bold" font-weight="bold" font-size="56.0" fill="#FFFFFF" transform="matrix(1.00, 0.00, -0.00, -1.00, 219.0, 495.0)">T</text><text xml:space="preserve" font-family="DINCondensed-Bold" font-weight="bold" font-size="56.0" fill="#FFFFFF" transform="matrix(1.00, 0.00, -0.00, -1.00, 234.2, 495.0)">-</text><text xml:space="preserve" font-family="DINCondensed-Bold" font-weight="bold" font-size="56.0" fill="#FFFFFF" transform="matrix(1.00, 0.00, -0.00, -1.00, 255.9, 495.0)">B</text><text xml:space="preserve" font-family="DINCondensed-Bold" font-weight="bold" font-size="56.0" fill="#FFFFFF" transform="matrix(1.00, 0.00, -0.00, -1.00, 279.1, 495.0)">A</text><text xml:space="preserve" font-family="DINCondensed-Bold" font-weight="bold" font-size="56.0" fill="#FFFFFF" transform="matrix(1.00, 0.00, -0.00, -1.00, 301.9, 495.0)">S</text><text xml:space="preserve" font-family="DINCondensed-Bold" font-weight="bold" font-size="56.0" fill="#FFFFFF" transform="matrix(1.00, 0.00, -0.00, -1.00, 324.7, 495.0)">E</text><text xml:space="preserve" font-family="DINCondensed-Bold" font-weight="bold" font-size="56.0" fill="#FFFFFF" transform="matrix(1.00, 0.00, -0.00, -1.00, 345.4, 495.0)">D</text><text xml:space="preserve" font-family="DINCondensed-Bold" font-weight="bold" font-size="56.0" fill="#FFFFFF" transform="matrix(1.00, 0.00, -0.00, -1.00, 379.6, 495.0)">C</text><text xml:space="preserve" font-family="DINCondensed-Bold" font-weight="bold" font-size="56.0" fill="#FFFFFF" transform="matrix(1.00, 0.00, -0.00, -1.00, 402.4, 495.0)">O</text><text xml:space="preserve" font-family="DINCondensed-Bold" font-weight="bold" font-size="56.0" fill="#FFFFFF" transform="matrix(1.00, 0.00, -0.00, -1.00, 426.3, 495.0)">M</text><text xml:space="preserve" font-family="DINCondensed-Bold" font-weight="bold" font-size="56.0" fill="#FFFFFF" transform="matrix(1.00, 0.00, -0.00, -1.00, 457.4, 495.0)">P</text><text xml:space="preserve" font-family="DINCondensed-Bold" font-weight="bold" font-size="56.0" fill="#FFFFFF" transform="matrix(1.00, 0.00, -0.00, -1.00, 480.2, 495.0)">U</text><text xml:space="preserve" font-family="DINCondensed-Bold" font-weight="bold" font-size="56.0" fill="#FFFFFF" transform="matrix(1.00, 0.00, -0.00, -1.00, 504.1, 495.0)">T</text><text xml:space="preserve" font-family="DINCondensed-Bold" font-weight="bold" font-size="56.0" fill="#FFFFFF" transform="matrix(1.00, 0.00, -0.00, -1.00, 522.7, 495.0)">I</text><text xml:space="preserve" font-family="DINCondensed-Bold" font-weight="bold" font-size="56.0" fill="#FFFFFF" transform="matrix(1.00, 0.00, -0.00, -1.00, 534.1, 495.0)">N</text><text xml:space="preserve" font-family="DINCondensed-Bold" font-weight="bold" font-size="56.0" fill="#FFFFFF" transform="matrix(1.00, 0.00, -0.00, -1.00, 559.0, 495.0)">G</text><text xml:space="preserve" font-family="DINCondensed-Bold" font-weight="bold" font-size="56.0" fill="#FFFFFF" transform="matrix(1.00, 0.00, -0.00, -1.00, 593.2, 495.0)">I</text><text xml:space="preserve" font-family="DINCondensed-Bold" font-weight="bold" font-size="56.0" fill="#FFFFFF" transform="matrix(1.00, 0.00, -0.00, -1.00, 604.7, 495.0)">N</text><text xml:space="preserve" font-family="DINCondensed-Bold" font-weight="bold" font-size="56.0" fill="#FFFFFF" transform="matrix(1.00, 0.00, -0.00, -1.00, 639.9, 495.0)">W</text><text xml:space="preserve" font-family="DINCondensed-Bold" font-weight="bold" font-size="56.0" fill="#FFFFFF" transform="matrix(1.00, 0.00, -0.00, -1.00, 673.1, 495.0)">H</text><text xml:space="preserve" font-family="DINCondensed-Bold" font-weight="bold" font-size="56.0" fill="#FFFFFF" transform="matrix(1.00, 0.00, -0.00, -1.00, 697.0, 495.0)">I</text><text xml:space="preserve" font-family="DINCondensed-Bold" font-weight="bold" font-size="56.0" fill="#FFFFFF" transform="matrix(1.00, 0.00, -0.00, -1.00, 708.4, 495.0)">C</text><text xml:space="preserve" font-family="DINCondensed-Bold" font-weight="bold" font-size="56.0" fill="#FFFFFF" transform="matrix(1.00, 0.00, -0.00, -1.00, 731.2, 495.0)">H</text><text xml:space="preserve" font-family="DINCondensed-Bold" font-weight="bold" font-size="56.0" fill="#FFFFFF" transform="matrix(1.00, 0.00, -0.00, -1.00, 765.5, 495.0)">L</text><text xml:space="preserve" font-family="DINCondensed-Bold" font-weight="bold" font-size="56.0" fill="#FFFFFF" transform="matrix(1.00, 0.00, -0.00, -1.00, 786.2, 495.0)">A</text><text xml:space="preserve" font-family="DINCondensed-Bold" font-weight="bold" font-size="56.0" fill="#FFFFFF" transform="matrix(1.00, 0.00, -0.00, -1.00, 809.0, 495.0)">R</text><text xml:space="preserve" font-family="DINCondensed-Bold" font-weight="bold" font-size="56.0" fill="#FFFFFF" transform="matrix(1.00, 0.00, -0.00, -1.00, 832.9, 495.0)">G</text><text xml:space="preserve" font-family="DINCondensed-Bold" font-weight="bold" font-size="56.0" fill="#FFFFFF" transform="matrix(1.00, 0.00, -0.00, -1.00, 856.7, 495.0)">E</text><text xml:space="preserve" font-family="DINCondensed-Bold" font-weight="bold" font-size="56.0" fill="#FFFFFF" transform="matrix(1.00, 0.00, -0.00, -1.00, 74.0, 439.0)">G</text><text xml:space="preserve" font-family="DINCondensed-Bold" font-weight="bold" font-size="56.0" fill="#FFFFFF" transform="matrix(1.00, 0.00, -0.00, -1.00, 97.9, 439.0)">R</text><text xml:space="preserve" font-family="DINCondensed-Bold" font-weight="bold" font-size="56.0" fill="#FFFFFF" transform="matrix(1.00, 0.00, -0.00, -1.00, 121.7, 439.0)">O</text><text xml:space="preserve" font-family="DINCondensed-Bold" font-weight="bold" font-size="56.0" fill="#FFFFFF" transform="matrix(1.00, 0.00, -0.00, -1.00, 145.6, 439.0)">U</text><text xml:space="preserve" font-family="DINCondensed-Bold" font-weight="bold" font-size="56.0" fill="#FFFFFF" transform="matrix(1.00, 0.00, -0.00, -1.00, 169.4, 439.0)">P</text><text xml:space="preserve" font-family="DINCondensed-Bold" font-weight="bold" font-size="56.0" fill="#FFFFFF" transform="matrix(1.00, 0.00, -0.00, -1.00, 192.2, 439.0)">S</text><text xml:space="preserve" font-family="DINCondensed-Bold" font-weight="bold" font-size="56.0" fill="#FFFFFF" transform="matrix(1.00, 0.00, -0.00, -1.00, 225.4, 439.0)">O</text><text xml:space="preserve" font-family="DINCondensed-Bold" font-weight="bold" font-size="56.0" fill="#FFFFFF" transform="matrix(1.00, 0.00, -0.00, -1.00, 249.2, 439.0)">F</text><text xml:space="preserve" font-family="DINCondensed-Bold" font-weight="bold" font-size="56.0" fill="#FFFFFF" transform="matrix(1.00, 0.00, -0.00, -1.00, 280.4, 439.0)">R</text><text xml:space="preserve" font-family="DINCondensed-Bold" font-weight="bold" font-size="56.0" fill="#FFFFFF" transform="matrix(1.00, 0.00, -0.00, -1.00, 304.2, 439.0)">E</text><text xml:space="preserve" font-family="DINCondensed-Bold" font-weight="bold" font-size="56.0" fill="#FFFFFF" transform="matrix(1.00, 0.00, -0.00, -1.00, 324.9, 439.0)">M</text><text xml:space="preserve" font-family="DINCondensed-Bold" font-weight="bold" font-size="56.0" fill="#FFFFFF" transform="matrix(1.00, 0.00, -0.00, -1.00, 356.1, 439.0)">O</text><text xml:space="preserve" font-family="DINCondensed-Bold" font-weight="bold" font-size="56.0" fill="#FFFFFF" transform="matrix(1.00, 0.00, -0.00, -1.00, 379.3, 439.0)">T</text><text xml:space="preserve" font-family="DINCondensed-Bold" font-weight="bold" font-size="56.0" fill="#FFFFFF" transform="matrix(1.00, 0.00, -0.00, -1.00, 397.8, 439.0)">E</text><text xml:space="preserve" font-family="DINCondensed-Bold" font-weight="bold" font-size="56.0" fill="#FFFFFF" transform="matrix(1.00, 0.00, -0.00, -1.00, 429.0, 439.0)">S</text><text xml:space="preserve" font-family="DINCondensed-Bold" font-weight="bold" font-size="56.0" fill="#FFFFFF" transform="matrix(1.00, 0.00, -0.00, -1.00, 451.7, 439.0)">E</text><text xml:space="preserve" font-family="DINCondensed-Bold" font-weight="bold" font-size="56.0" fill="#FFFFFF" transform="matrix(1.00, 0.00, -0.00, -1.00, 472.4, 439.0)">R</text><text xml:space="preserve" font-family="DINCondensed-Bold" font-weight="bold" font-size="56.0" fill="#FFFFFF" transform="matrix(1.00, 0.00, -0.00, -1.00, 496.3, 439.0)">V</text><text xml:space="preserve" font-family="DINCondensed-Bold" font-weight="bold" font-size="56.0" fill="#FFFFFF" transform="matrix(1.00, 0.00, -0.00, -1.00, 519.1, 439.0)">E</text><text xml:space="preserve" font-family="DINCondensed-Bold" font-weight="bold" font-size="56.0" fill="#FFFFFF" transform="matrix(1.00, 0.00, -0.00, -1.00, 539.8, 439.0)">R</text><text xml:space="preserve" font-family="DINCondensed-Bold" font-weight="bold" font-size="56.0" fill="#FFFFFF" transform="matrix(1.00, 0.00, -0.00, -1.00, 563.7, 439.0)">S</text><text xml:space="preserve" font-family="DINCondensed-Bold" font-weight="bold" font-size="56.0" fill="#FFFFFF" transform="matrix(1.00, 0.00, -0.00, -1.00, 596.8, 439.0)">A</text><text xml:space="preserve" font-family="DINCondensed-Bold" font-weight="bold" font-size="56.0" fill="#FFFFFF" transform="matrix(1.00, 0.00, -0.00, -1.00, 619.6, 439.0)">R</text><text xml:space="preserve" font-family="DINCondensed-Bold" font-weight="bold" font-size="56.0" fill="#FFFFFF" transform="matrix(1.00, 0.00, -0.00, -1.00, 643.5, 439.0)">E</text><text xml:space="preserve" font-family="DINCondensed-Bold" font-weight="bold" font-size="56.0" fill="#FFFFFF" transform="matrix(1.00, 0.00, -0.00, -1.00, 674.6, 439.0)">N</text><text xml:space="preserve" font-family="DINCondensed-Bold" font-weight="bold" font-size="56.0" fill="#FFFFFF" transform="matrix(1.00, 0.00, -0.00, -1.00, 699.5, 439.0)">E</text><text xml:space="preserve" font-family="DINCondensed-Bold" font-weight="bold" font-size="56.0" fill="#FFFFFF" transform="matrix(1.00, 0.00, -0.00, -1.00, 720.2, 439.0)">T</text><text xml:space="preserve" font-family="DINCondensed-Bold" font-weight="bold" font-size="56.0" fill="#FFFFFF" transform="matrix(1.00, 0.00, -0.00, -1.00, 738.8, 439.0)">W</text><text xml:space="preserve" font-family="DINCondensed-Bold" font-weight="bold" font-size="56.0" fill="#FFFFFF" transform="matrix(1.00, 0.00, -0.00, -1.00, 771.3, 439.0)">O</text><text xml:space="preserve" font-family="DINCondensed-Bold" font-weight="bold" font-size="56.0" fill="#FFFFFF" transform="matrix(1.00, 0.00, -0.00, -1.00, 795.2, 439.0)">R</text><text xml:space="preserve" font-family="DINCondensed-Bold" font-weight="bold" font-size="56.0" fill="#FFFFFF" transform="matrix(1.00, 0.00, -0.00, -1.00, 819.0, 439.0)">K</text><text xml:space="preserve" font-family="DINCondensed-Bold" font-weight="bold" font-size="56.0" fill="#FFFFFF" transform="matrix(1.00, 0.00, -0.00, -1.00, 842.9, 439.0)">E</text><text xml:space="preserve" font-family="DINCondensed-Bold" font-weight="bold" font-size="56.0" fill="#FFFFFF" transform="matrix(1.00, 0.00, -0.00, -1.00, 863.6, 439.0)">D</text><text xml:space="preserve" font-family="DINCondensed-Bold" font-weight="bold" font-size="56.0" fill="#FFFFFF" transform="matrix(1.00, 0.00, -0.00, -1.00, 897.9, 439.0)">S</text><text xml:space="preserve" font-family="DINCondensed-Bold" font-weight="bold" font-size="56.0" fill="#FFFFFF" transform="matrix(1.00, 0.00, -0.00, -1.00, 920.6, 439.0)">O</text><text xml:space="preserve" font-family="DINCondensed-Bold" font-weight="bold" font-size="56.0" fill="#FFFFFF" transform="matrix(1.00, 0.00, -0.00, -1.00, 74.0, 384.0)">A</text><text xml:space="preserve" font-family="DINCondensed-Bold" font-weight="bold" font-size="56.0" fill="#FFFFFF" transform="matrix(1.00, 0.00, -0.00, -1.00, 96.8, 384.0)">S</text><text xml:space="preserve" font-family="DINCondensed-Bold" font-weight="bold" font-size="56.0" fill="#FFFFFF" transform="matrix(1.00, 0.00, -0.00, -1.00, 129.9, 384.0)">T</text><text xml:space="preserve" font-family="DINCondensed-Bold" font-weight="bold" font-size="56.0" fill="#FFFFFF" transform="matrix(1.00, 0.00, -0.00, -1.00, 147.9, 384.0)">O</text><text xml:space="preserve" font-family="DINCondensed-Bold" font-weight="bold" font-size="56.0" fill="#FFFFFF" transform="matrix(1.00, 0.00, -0.00, -1.00, 182.1, 384.0)">A</text><text xml:space="preserve" font-family="DINCondensed-Bold" font-weight="bold" font-size="56.0" fill="#FFFFFF" transform="matrix(1.00, 0.00, -0.00, -1.00, 204.9, 384.0)">L</text><text xml:space="preserve" font-family="DINCondensed-Bold" font-weight="bold" font-size="56.0" fill="#FFFFFF" transform="matrix(1.00, 0.00, -0.00, -1.00, 225.6, 384.0)">L</text><text xml:space="preserve" font-family="DINCondensed-Bold" font-weight="bold" font-size="56.0" fill="#FFFFFF" transform="matrix(1.00, 0.00, -0.00, -1.00, 246.4, 384.0)">O</text><text xml:space="preserve" font-family="DINCondensed-Bold" font-weight="bold" font-size="56.0" fill="#FFFFFF" transform="matrix(1.00, 0.00, -0.00, -1.00, 269.6, 384.0)">W</text><text xml:space="preserve" font-family="DINCondensed-Bold" font-weight="bold" font-size="56.0" fill="#FFFFFF" transform="matrix(1.00, 0.00, -0.00, -1.00, 313.2, 384.0)">S</text><text xml:space="preserve" font-family="DINCondensed-Bold" font-weight="bold" font-size="56.0" fill="#FFFFFF" transform="matrix(1.00, 0.00, -0.00, -1.00, 335.9, 384.0)">H</text><text xml:space="preserve" font-family="DINCondensed-Bold" font-weight="bold" font-size="56.0" fill="#FFFFFF" transform="matrix(1.00, 0.00, -0.00, -1.00, 359.8, 384.0)">A</text><text xml:space="preserve" font-family="DINCondensed-Bold" font-weight="bold" font-size="56.0" fill="#FFFFFF" transform="matrix(1.00, 0.00, -0.00, -1.00, 382.6, 384.0)">R</text><text xml:space="preserve" font-family="DINCondensed-Bold" font-weight="bold" font-size="56.0" fill="#FFFFFF" transform="matrix(1.00, 0.00, -0.00, -1.00, 406.4, 384.0)">I</text><text xml:space="preserve" font-family="DINCondensed-Bold" font-weight="bold" font-size="56.0" fill="#FFFFFF" transform="matrix(1.00, 0.00, -0.00, -1.00, 417.8, 384.0)">N</text><text xml:space="preserve" font-family="DINCondensed-Bold" font-weight="bold" font-size="56.0" fill="#FFFFFF" transform="matrix(1.00, 0.00, -0.00, -1.00, 442.7, 384.0)">G</text><text xml:space="preserve" font-family="DINCondensed-Bold" font-weight="bold" font-size="56.0" fill="#FFFFFF" transform="matrix(1.00, 0.00, -0.00, -1.00, 477.0, 384.0)">O</text><text xml:space="preserve" font-family="DINCondensed-Bold" font-weight="bold" font-size="56.0" fill="#FFFFFF" transform="matrix(1.00, 0.00, -0.00, -1.00, 500.8, 384.0)">F</text><text xml:space="preserve" font-family="DINCondensed-Bold" font-weight="bold" font-size="56.0" fill="#FFFFFF" transform="matrix(1.00, 0.00, -0.00, -1.00, 532.0, 384.0)">D</text><text xml:space="preserve" font-family="DINCondensed-Bold" font-weight="bold" font-size="56.0" fill="#FFFFFF" transform="matrix(1.00, 0.00, -0.00, -1.00, 555.2, 384.0)">A</text><text xml:space="preserve" font-family="DINCondensed-Bold" font-weight="bold" font-size="56.0" fill="#FFFFFF" transform="matrix(1.00, 0.00, -0.00, -1.00, 574.9, 384.0)">T</text><text xml:space="preserve" font-family="DINCondensed-Bold" font-weight="bold" font-size="56.0" fill="#FFFFFF" transform="matrix(1.00, 0.00, -0.00, -1.00, 590.4, 384.0)">A</text><text xml:space="preserve" font-family="DINCondensed-Bold" font-weight="bold" font-size="56.0" fill="#FFFFFF" transform="matrix(1.00, 0.00, -0.00, -1.00, 613.2, 384.0)">-</text><text xml:space="preserve" font-family="DINCondensed-Bold" font-weight="bold" font-size="56.0" fill="#FFFFFF" transform="matrix(1.00, 0.00, -0.00, -1.00, 635.0, 384.0)">P</text><text xml:space="preserve" font-family="DINCondensed-Bold" font-weight="bold" font-size="56.0" fill="#FFFFFF" transform="matrix(1.00, 0.00, -0.00, -1.00, 657.7, 384.0)">R</text><text xml:space="preserve" font-family="DINCondensed-Bold" font-weight="bold" font-size="56.0" fill="#FFFFFF" transform="matrix(1.00, 0.00, -0.00, -1.00, 681.6, 384.0)">O</text><text xml:space="preserve" font-family="DINCondensed-Bold" font-weight="bold" font-size="56.0" fill="#FFFFFF" transform="matrix(1.00, 0.00, -0.00, -1.00, 705.5, 384.0)">C</text><text xml:space="preserve" font-family="DINCondensed-Bold" font-weight="bold" font-size="56.0" fill="#FFFFFF" transform="matrix(1.00, 0.00, -0.00, -1.00, 728.2, 384.0)">E</text><text xml:space="preserve" font-family="DINCondensed-Bold" font-weight="bold" font-size="56.0" fill="#FFFFFF" transform="matrix(1.00, 0.00, -0.00, -1.00, 749.0, 384.0)">S</text><text xml:space="preserve" font-family="DINCondensed-Bold" font-weight="bold" font-size="56.0" fill="#FFFFFF" transform="matrix(1.00, 0.00, -0.00, -1.00, 771.7, 384.0)">S</text><text xml:space="preserve" font-family="DINCondensed-Bold" font-weight="bold" font-size="56.0" fill="#FFFFFF" transform="matrix(1.00, 0.00, -0.00, -1.00, 794.4, 384.0)">I</text><text xml:space="preserve" font-family="DINCondensed-Bold" font-weight="bold" font-size="56.0" fill="#FFFFFF" transform="matrix(1.00, 0.00, -0.00, -1.00, 805.9, 384.0)">N</text><text xml:space="preserve" font-family="DINCondensed-Bold" font-weight="bold" font-size="56.0" fill="#FFFFFF" transform="matrix(1.00, 0.00, -0.00, -1.00, 830.7, 384.0)">G</text><text xml:space="preserve" font-family="DINCondensed-Bold" font-weight="bold" font-size="56.0" fill="#FFFFFF" transform="matrix(1.00, 0.00, -0.00, -1.00, 74.0, 328.0)">T</text><text xml:space="preserve" font-family="DINCondensed-Bold" font-weight="bold" font-size="56.0" fill="#FFFFFF" transform="matrix(1.00, 0.00, -0.00, -1.00, 89.5, 328.0)">A</text><text xml:space="preserve" font-family="DINCondensed-Bold" font-weight="bold" font-size="56.0" fill="#FFFFFF" transform="matrix(1.00, 0.00, -0.00, -1.00, 112.3, 328.0)">S</text><text xml:space="preserve" font-family="DINCondensed-Bold" font-weight="bold" font-size="56.0" fill="#FFFFFF" transform="matrix(1.00, 0.00, -0.00, -1.00, 135.0, 328.0)">K</text><text xml:space="preserve" font-family="DINCondensed-Bold" font-weight="bold" font-size="56.0" fill="#FFFFFF" transform="matrix(1.00, 0.00, -0.00, -1.00, 158.9, 328.0)">S</text><text xml:space="preserve" font-family="DINCondensed-Bold" font-weight="bold" font-size="56.0" fill="#FFFFFF" transform="matrix(1.00, 0.00, -0.00, -1.00, 181.6, 328.0)">,</text><text xml:space="preserve" font-family="DINCondensed-Bold" font-weight="bold" font-size="56.0" fill="#FFFFFF" transform="matrix(1.00, 0.00, -0.00, -1.00, 202.5, 328.0)">C</text><text xml:space="preserve" font-family="DINCondensed-Bold" font-weight="bold" font-size="56.0" fill="#FFFFFF" transform="matrix(1.00, 0.00, -0.00, -1.00, 225.3, 328.0)">E</text><text xml:space="preserve" font-family="DINCondensed-Bold" font-weight="bold" font-size="56.0" fill="#FFFFFF" transform="matrix(1.00, 0.00, -0.00, -1.00, 246.0, 328.0)">N</text><text xml:space="preserve" font-family="DINCondensed-Bold" font-weight="bold" font-size="56.0" fill="#FFFFFF" transform="matrix(1.00, 0.00, -0.00, -1.00, 270.8, 328.0)">T</text><text xml:space="preserve" font-family="DINCondensed-Bold" font-weight="bold" font-size="56.0" fill="#FFFFFF" transform="matrix(1.00, 0.00, -0.00, -1.00, 289.4, 328.0)">R</text><text xml:space="preserve" font-family="DINCondensed-Bold" font-weight="bold" font-size="56.0" fill="#FFFFFF" transform="matrix(1.00, 0.00, -0.00, -1.00, 313.3, 328.0)">A</text><text xml:space="preserve" font-family="DINCondensed-Bold" font-weight="bold" font-size="56.0" fill="#FFFFFF" transform="matrix(1.00, 0.00, -0.00, -1.00, 336.1, 328.0)">L</text><text xml:space="preserve" font-family="DINCondensed-Bold" font-weight="bold" font-size="56.0" fill="#FFFFFF" transform="matrix(1.00, 0.00, -0.00, -1.00, 356.8, 328.0)">I</text><text xml:space="preserve" font-family="DINCondensed-Bold" font-weight="bold" font-size="56.0" fill="#FFFFFF" transform="matrix(1.00, 0.00, -0.00, -1.00, 368.2, 328.0)">Z</text><text xml:space="preserve" font-family="DINCondensed-Bold" font-weight="bold" font-size="56.0" fill="#FFFFFF" transform="matrix(1.00, 0.00, -0.00, -1.00, 386.9, 328.0)">E</text><text xml:space="preserve" font-family="DINCondensed-Bold" font-weight="bold" font-size="56.0" fill="#FFFFFF" transform="matrix(1.00, 0.00, -0.00, -1.00, 407.6, 328.0)">D</text><text xml:space="preserve" font-family="DINCondensed-Bold" font-weight="bold" font-size="56.0" fill="#FFFFFF" transform="matrix(1.00, 0.00, -0.00, -1.00, 441.9, 328.0)">D</text><text xml:space="preserve" font-family="DINCondensed-Bold" font-weight="bold" font-size="56.0" fill="#FFFFFF" transform="matrix(1.00, 0.00, -0.00, -1.00, 465.0, 328.0)">A</text><text xml:space="preserve" font-family="DINCondensed-Bold" font-weight="bold" font-size="56.0" fill="#FFFFFF" transform="matrix(1.00, 0.00, -0.00, -1.00, 484.8, 328.0)">T</text><text xml:space="preserve" font-family="DINCondensed-Bold" font-weight="bold" font-size="56.0" fill="#FFFFFF" transform="matrix(1.00, 0.00, -0.00, -1.00, 500.3, 328.0)">A</text><text xml:space="preserve" font-family="DINCondensed-Bold" font-weight="bold" font-size="56.0" fill="#FFFFFF" transform="matrix(1.00, 0.00, -0.00, -1.00, 533.5, 328.0)">S</text><text xml:space="preserve" font-family="DINCondensed-Bold" font-weight="bold" font-size="56.0" fill="#FFFFFF" transform="matrix(1.00, 0.00, -0.00, -1.00, 556.2, 328.0)">T</text><text xml:space="preserve" font-family="DINCondensed-Bold" font-weight="bold" font-size="56.0" fill="#FFFFFF" transform="matrix(1.00, 0.00, -0.00, -1.00, 574.1, 328.0)">O</text><text xml:space="preserve" font-family="DINCondensed-Bold" font-weight="bold" font-size="56.0" fill="#FFFFFF" transform="matrix(1.00, 0.00, -0.00, -1.00, 598.0, 328.0)">R</text><text xml:space="preserve" font-family="DINCondensed-Bold" font-weight="bold" font-size="56.0" fill="#FFFFFF" transform="matrix(1.00, 0.00, -0.00, -1.00, 621.8, 328.0)">A</text><text xml:space="preserve" font-family="DINCondensed-Bold" font-weight="bold" font-size="56.0" fill="#FFFFFF" transform="matrix(1.00, 0.00, -0.00, -1.00, 644.6, 328.0)">G</text><text xml:space="preserve" font-family="DINCondensed-Bold" font-weight="bold" font-size="56.0" fill="#FFFFFF" transform="matrix(1.00, 0.00, -0.00, -1.00, 668.5, 328.0)">E</text><text xml:space="preserve" font-family="DINCondensed-Bold" font-weight="bold" font-size="56.0" fill="#FFFFFF" transform="matrix(1.00, 0.00, -0.00, -1.00, 689.2, 328.0)">,</text><text xml:space="preserve" font-family="DINCondensed-Bold" font-weight="bold" font-size="56.0" fill="#FFFFFF" transform="matrix(1.00, 0.00, -0.00, -1.00, 710.0, 328.0)">A</text><text xml:space="preserve" font-family="DINCondensed-Bold" font-weight="bold" font-size="56.0" fill="#FFFFFF" transform="matrix(1.00, 0.00, -0.00, -1.00, 732.8, 328.0)">N</text><text xml:space="preserve" font-family="DINCondensed-Bold" font-weight="bold" font-size="56.0" fill="#FFFFFF" transform="matrix(1.00, 0.00, -0.00, -1.00, 757.7, 328.0)">D</text><text xml:space="preserve" font-family="DINCondensed-Bold" font-weight="bold" font-size="56.0" fill="#FFFFFF" transform="matrix(1.00, 0.00, -0.00, -1.00, 792.0, 328.0)">O</text><text xml:space="preserve" font-family="DINCondensed-Bold" font-weight="bold" font-size="56.0" fill="#FFFFFF" transform="matrix(1.00, 0.00, -0.00, -1.00, 815.8, 328.0)">N</text><text xml:space="preserve" font-family="DINCondensed-Bold" font-weight="bold" font-size="56.0" fill="#FFFFFF" transform="matrix(1.00, 0.00, -0.00, -1.00, 840.7, 328.0)">L</text><text xml:space="preserve" font-family="DINCondensed-Bold" font-weight="bold" font-size="56.0" fill="#FFFFFF" transform="matrix(1.00, 0.00, -0.00, -1.00, 861.4, 328.0)">I</text><text xml:space="preserve" font-family="DINCondensed-Bold" font-weight="bold" font-size="56.0" fill="#FFFFFF" transform="matrix(1.00, 0.00, -0.00, -1.00, 872.8, 328.0)">N</text><text xml:space="preserve" font-family="DINCondensed-Bold" font-weight="bold" font-size="56.0" fill="#FFFFFF" transform="matrix(1.00, 0.00, -0.00, -1.00, 897.7, 328.0)">E</text><text xml:space="preserve" font-family="DINCondensed-Bold" font-weight="bold" font-size="56.0" fill="#FFFFFF" transform="matrix(1.00, 0.00, -0.00, -1.00, 74.0, 272.0)">A</text><text xml:space="preserve" font-family="DINCondensed-Bold" font-weight="bold" font-size="56.0" fill="#FFFFFF" transform="matrix(1.00, 0.00, -0.00, -1.00, 96.8, 272.0)">C</text><text xml:space="preserve" font-family="DINCondensed-Bold" font-weight="bold" font-size="56.0" fill="#FFFFFF" transform="matrix(1.00, 0.00, -0.00, -1.00, 119.6, 272.0)">C</text><text xml:space="preserve" font-family="DINCondensed-Bold" font-weight="bold" font-size="56.0" fill="#FFFFFF" transform="matrix(1.00, 0.00, -0.00, -1.00, 142.4, 272.0)">E</text><text xml:space="preserve" font-family="DINCondensed-Bold" font-weight="bold" font-size="56.0" fill="#FFFFFF" transform="matrix(1.00, 0.00, -0.00, -1.00, 163.1, 272.0)">S</text><text xml:space="preserve" font-family="DINCondensed-Bold" font-weight="bold" font-size="56.0" fill="#FFFFFF" transform="matrix(1.00, 0.00, -0.00, -1.00, 185.8, 272.0)">S</text><text xml:space="preserve" font-family="DINCondensed-Bold" font-weight="bold" font-size="56.0" fill="#FFFFFF" transform="matrix(1.00, 0.00, -0.00, -1.00, 219.0, 272.0)">T</text><text xml:space="preserve" font-family="DINCondensed-Bold" font-weight="bold" font-size="56.0" fill="#FFFFFF" transform="matrix(1.00, 0.00, -0.00, -1.00, 236.9, 272.0)">O</text><text xml:space="preserve" font-family="DINCondensed-Bold" font-weight="bold" font-size="56.0" fill="#FFFFFF" transform="matrix(1.00, 0.00, -0.00, -1.00, 271.2, 272.0)">C</text><text xml:space="preserve" font-family="DINCondensed-Bold" font-weight="bold" font-size="56.0" fill="#FFFFFF" transform="matrix(1.00, 0.00, -0.00, -1.00, 294.0, 272.0)">O</text><text xml:space="preserve" font-family="DINCondensed-Bold" font-weight="bold" font-size="56.0" fill="#FFFFFF" transform="matrix(1.00, 0.00, -0.00, -1.00, 317.8, 272.0)">M</text><text xml:space="preserve" font-family="DINCondensed-Bold" font-weight="bold" font-size="56.0" fill="#FFFFFF" transform="matrix(1.00, 0.00, -0.00, -1.00, 349.0, 272.0)">P</text><text xml:space="preserve" font-family="DINCondensed-Bold" font-weight="bold" font-size="56.0" fill="#FFFFFF" transform="matrix(1.00, 0.00, -0.00, -1.00, 371.8, 272.0)">U</text><text xml:space="preserve" font-family="DINCondensed-Bold" font-weight="bold" font-size="56.0" fill="#FFFFFF" transform="matrix(1.00, 0.00, -0.00, -1.00, 395.6, 272.0)">T</text><text xml:space="preserve" font-family="DINCondensed-Bold" font-weight="bold" font-size="56.0" fill="#FFFFFF" transform="matrix(1.00, 0.00, -0.00, -1.00, 414.2, 272.0)">E</text><text xml:space="preserve" font-family="DINCondensed-Bold" font-weight="bold" font-size="56.0" fill="#FFFFFF" transform="matrix(1.00, 0.00, -0.00, -1.00, 434.9, 272.0)">R</text><text xml:space="preserve" font-family="DINCondensed-Bold" font-weight="bold" font-size="56.0" fill="#FFFFFF" transform="matrix(1.00, 0.00, -0.00, -1.00, 469.2, 272.0)">S</text><text xml:space="preserve" font-family="DINCondensed-Bold" font-weight="bold" font-size="56.0" fill="#FFFFFF" transform="matrix(1.00, 0.00, -0.00, -1.00, 491.9, 272.0)">E</text><text xml:space="preserve" font-family="DINCondensed-Bold" font-weight="bold" font-size="56.0" fill="#FFFFFF" transform="matrix(1.00, 0.00, -0.00, -1.00, 512.6, 272.0)">R</text><text xml:space="preserve" font-family="DINCondensed-Bold" font-weight="bold" font-size="56.0" fill="#FFFFFF" transform="matrix(1.00, 0.00, -0.00, -1.00, 536.5, 272.0)">V</text><text xml:space="preserve" font-family="DINCondensed-Bold" font-weight="bold" font-size="56.0" fill="#FFFFFF" transform="matrix(1.00, 0.00, -0.00, -1.00, 559.3, 272.0)">I</text><text xml:space="preserve" font-family="DINCondensed-Bold" font-weight="bold" font-size="56.0" fill="#FFFFFF" transform="matrix(1.00, 0.00, -0.00, -1.00, 570.7, 272.0)">C</text><text xml:space="preserve" font-family="DINCondensed-Bold" font-weight="bold" font-size="56.0" fill="#FFFFFF" transform="matrix(1.00, 0.00, -0.00, -1.00, 593.5, 272.0)">E</text><text xml:space="preserve" font-family="DINCondensed-Bold" font-weight="bold" font-size="56.0" fill="#FFFFFF" transform="matrix(1.00, 0.00, -0.00, -1.00, 614.2, 272.0)">S</text><text xml:space="preserve" font-family="DINCondensed-Bold" font-weight="bold" font-size="56.0" fill="#FFFFFF" transform="matrix(1.00, 0.00, -0.00, -1.00, 647.4, 272.0)">O</text><text xml:space="preserve" font-family="DINCondensed-Bold" font-weight="bold" font-size="56.0" fill="#FFFFFF" transform="matrix(1.00, 0.00, -0.00, -1.00, 671.2, 272.0)">R</text><text xml:space="preserve" font-family="DINCondensed-Bold" font-weight="bold" font-size="56.0" fill="#FFFFFF" transform="matrix(1.00, 0.00, -0.00, -1.00, 705.5, 272.0)">R</text><text xml:space="preserve" font-family="DINCondensed-Bold" font-weight="bold" font-size="56.0" fill="#FFFFFF" transform="matrix(1.00, 0.00, -0.00, -1.00, 729.4, 272.0)">E</text><text xml:space="preserve" font-family="DINCondensed-Bold" font-weight="bold" font-size="56.0" fill="#FFFFFF" transform="matrix(1.00, 0.00, -0.00, -1.00, 750.1, 272.0)">S</text><text xml:space="preserve" font-family="DINCondensed-Bold" font-weight="bold" font-size="56.0" fill="#FFFFFF" transform="matrix(1.00, 0.00, -0.00, -1.00, 772.8, 272.0)">O</text><text xml:space="preserve" font-family="DINCondensed-Bold" font-weight="bold" font-size="56.0" fill="#FFFFFF" transform="matrix(1.00, 0.00, -0.00, -1.00, 796.7, 272.0)">U</text><text xml:space="preserve" font-family="DINCondensed-Bold" font-weight="bold" font-size="56.0" fill="#FFFFFF" transform="matrix(1.00, 0.00, -0.00, -1.00, 820.5, 272.0)">R</text><text xml:space="preserve" font-family="DINCondensed-Bold" font-weight="bold" font-size="56.0" fill="#FFFFFF" transform="matrix(1.00, 0.00, -0.00, -1.00, 844.4, 272.0)">C</text><text xml:space="preserve" font-family="DINCondensed-Bold" font-weight="bold" font-size="56.0" fill="#FFFFFF" transform="matrix(1.00, 0.00, -0.00, -1.00, 867.2, 272.0)">E</text><text xml:space="preserve" font-family="DINCondensed-Bold" font-weight="bold" font-size="56.0" fill="#FFFFFF" transform="matrix(1.00, 0.00, -0.00, -1.00, 887.9, 272.0)">S</text><text xml:space="preserve" font-family="DINCondensed-Bold" font-weight="bold" font-size="56.0" fill="#FFFFFF" transform="matrix(1.00, 0.00, -0.00, -1.00, 910.6, 272.0)">.</text><text xml:space="preserve" font-family="DINCondensed-Bold" font-weight="bold" font-size="60.0" fill="#838686" transform="matrix(1.00, 0.00, -0.00, -1.00, 711.3, 107.9)">D</text><text xml:space="preserve" font-family="DINCondensed-Bold" font-weight="bold" font-size="60.0" fill="#838686" transform="matrix(1.00, 0.00, -0.00, -1.00, 736.8, 107.9)">i</text><text xml:space="preserve" font-family="DINCondensed-Bold" font-weight="bold" font-size="60.0" fill="#838686" transform="matrix(1.00, 0.00, -0.00, -1.00, 748.0, 107.9)">c</text><text xml:space="preserve" font-family="DINCondensed-Bold" font-weight="bold" font-size="60.0" fill="#838686" transform="matrix(1.00, 0.00, -0.00, -1.00, 770.2, 107.9)">t</text><text xml:space="preserve" font-family="DINCondensed-Bold" font-weight="bold" font-size="60.0" fill="#838686" transform="matrix(1.00, 0.00, -0.00, -1.00, 782.4, 107.9)">i</text><text xml:space="preserve" font-family="DINCondensed-Bold" font-weight="bold" font-size="60.0" fill="#838686" transform="matrix(1.00, 0.00, -0.00, -1.00, 793.6, 107.9)">o</text><text xml:space="preserve" font-family="DINCondensed-Bold" font-weight="bold" font-size="60.0" fill="#838686" transform="matrix(1.00, 0.00, -0.00, -1.00, 815.8, 107.9)">n</text><text xml:space="preserve" font-family="DINCondensed-Bold" font-weight="bold" font-size="60.0" fill="#838686" transform="matrix(1.00, 0.00, -0.00, -1.00, 839.1, 107.9)">a</text><text xml:space="preserve" font-family="DINCondensed-Bold" font-weight="bold" font-size="60.0" fill="#838686" transform="matrix(1.00, 0.00, -0.00, -1.00, 861.3, 107.9)">r</text><text xml:space="preserve" font-family="DINCondensed-Bold" font-weight="bold" font-size="60.0" fill="#838686" transform="matrix(1.00, 0.00, -0.00, -1.00, 879.1, 107.9)">y</text><text xml:space="preserve" font-family="DINCondensed-Bold" font-weight="bold" font-size="60.0" fill="#838686" transform="matrix(1.00, 0.00, -0.00, -1.00, 896.9, 107.9)">.</text><text xml:space="preserve" font-family="DINCondensed-Bold" font-weight="bold" font-size="60.0" fill="#838686" transform="matrix(1.00, 0.00, -0.00, -1.00, 908.1, 107.9)">c</text><text xml:space="preserve" font-family="DINCondensed-Bold" font-weight="bold" font-size="60.0" fill="#838686" transform="matrix(1.00, 0.00, -0.00, -1.00, 930.3, 107.9)">o</text><text xml:space="preserve" font-family="DINCondensed-Bold" font-weight="bold" font-size="60.0" fill="#838686" transform="matrix(1.00, 0.00, -0.00, -1.00, 952.5, 107.9)">m</text><text xml:space="preserve" font-family="DINAlternate-Bold" font-weight="bold" font-size="24.0" fill="#838686" transform="matrix(1.00, 0.00, -0.00, -1.00, 36.0, 705.0)">D</text><text xml:space="preserve" font-family="DINAlternate-Bold" font-weight="bold" font-size="24.0" fill="#838686" transform="matrix(1.00, 0.00, -0.00, -1.00, 52.3, 705.0)">E</text><text xml:space="preserve" font-family="DINAlternate-Bold" font-weight="bold" font-size="24.0" fill="#838686" transform="matrix(1.00, 0.00, -0.00, -1.00, 66.9, 705.0)">F</text><text xml:space="preserve" font-family="DINAlternate-Bold" font-weight="bold" font-size="24.0" fill="#838686" transform="matrix(1.00, 0.00, -0.00, -1.00, 80.9, 705.0)">I</text><text xml:space="preserve" font-family="DINAlternate-Bold" font-weight="bold" font-size="24.0" fill="#838686" transform="matrix(1.00, 0.00, -0.00, -1.00, 88.3, 705.0)">N</text><text xml:space="preserve" font-family="DINAlternate-Bold" font-weight="bold" font-size="24.0" fill="#838686" transform="matrix(1.00, 0.00, -0.00, -1.00, 105.9, 705.0)">I</text><text xml:space="preserve" font-family="DINAlternate-Bold" font-weight="bold" font-size="24.0" fill="#838686" transform="matrix(1.00, 0.00, -0.00, -1.00, 113.3, 705.0)">T</text><text xml:space="preserve" font-family="DINAlternate-Bold" font-weight="bold" font-size="24.0" fill="#838686" transform="matrix(1.00, 0.00, -0.00, -1.00, 126.5, 705.0)">I</text><text xml:space="preserve" font-family="DINAlternate-Bold" font-weight="bold" font-size="24.0" fill="#838686" transform="matrix(1.00, 0.00, -0.00, -1.00, 133.9, 705.0)">O</text><text xml:space="preserve" font-family="DINAlternate-Bold" font-weight="bold" font-size="24.0" fill="#838686" transform="matrix(1.00, 0.00, -0.00, -1.00, 149.8, 705.0)">N</text><text xml:space="preserve" font-family="DINAlternate-Bold" font-weight="bold" font-size="24.0" fill="#838686" transform="matrix(1.00, 0.00, -0.00, -1.00, 976.1, 707.4)">3</text></g></svg>