<?xml version="1.0" encoding="UTF-8" standalone="no"?><svg xmlns="http://www.w3.org/2000/svg" xmlns:xlink="http://www.w3.org/1999/xlink" clip-rule="evenodd" stroke-miterlimit="4.00" viewBox="0 0 881 43"><desc>SVG generated by Keynote</desc><defs></defs><g transform="matrix(1.00, 0.00, -0.00, -1.00, 0.0, 43.0)"><text xml:space="preserve" font-family="LucidaGrande" font-size="35.7" fill="#34A4DA" transform="matrix(1.00, 0.00, -0.00, -1.00, 0.0, 7.0)">▸</text><text xml:space="preserve" font-family="AvenirNext-Medium" font-size="34.0" fill="#838686" transform="matrix(1.00, 0.00, -0.00, -1.00, 35.0, 10.0)">I</text><text xml:space="preserve" font-family="AvenirNext-Medium" font-size="34.0" fill="#838686" transform="matrix(1.00, 0.00, -0.00, -1.00, 44.2, 10.0)">n</text><text xml:space="preserve" font-family="AvenirNext-Medium" font-size="34.0" fill="#838686" transform="matrix(1.00, 0.00, -0.00, -1.00, 64.0, 10.0)">t</text><text xml:space="preserve" font-family="AvenirNext-Medium" font-size="34.0" fill="#838686" transform="matrix(1.00, 0.00, -0.00, -1.00, 75.2, 10.0)">e</text><text xml:space="preserve" font-family="AvenirNext-Medium" font-size="34.0" fill="#838686" transform="matrix(1.00, 0.00, -0.00, -1.00, 94.7, 10.0)">n</text><text xml:space="preserve" font-family="AvenirNext-Medium" font-size="34.0" fill="#838686" transform="matrix(1.00, 0.00, -0.00, -1.00, 114.5, 10.0)">d</text><text xml:space="preserve" font-family="AvenirNext-Medium" font-size="34.0" fill="#838686" transform="matrix(1.00, 0.00, -0.00, -1.00, 136.0, 10.0)">e</text><text xml:space="preserve" font-family="AvenirNext-Medium" font-size="34.0" fill="#838686" transform="matrix(1.00, 0.00, -0.00, -1.00, 155.5, 10.0)">d</text><text xml:space="preserve" font-family="AvenirNext-Medium" font-size="34.0" fill="#838686" transform="matrix(1.00, 0.00, -0.00, -1.00, 177.1, 10.0)"> </text><text xml:space="preserve" font-family="AvenirNext-Medium" font-size="34.0" fill="#838686" transform="matrix(1.00, 0.00, -0.00, -1.00, 185.6, 10.0)">t</text><text xml:space="preserve" font-family="AvenirNext-Medium" font-size="34.0" fill="#838686" transform="matrix(1.00, 0.00, -0.00, -1.00, 196.8, 10.0)">o</text><text xml:space="preserve" font-family="AvenirNext-Medium" font-size="34.0" fill="#838686" transform="matrix(1.00, 0.00, -0.00, -1.00, 217.5, 10.0)"> </text><text xml:space="preserve" font-family="AvenirNext-Medium" font-size="34.0" fill="#838686" transform="matrix(1.00, 0.00, -0.00, -1.00, 226.0, 10.0)">b</text><text xml:space="preserve" font-family="AvenirNext-Medium" font-size="34.0" fill="#838686" transform="matrix(1.00, 0.00, -0.00, -1.00, 247.7, 10.0)">e</text><text xml:space="preserve" font-family="AvenirNext-Medium" font-size="34.0" fill="#838686" transform="matrix(1.00, 0.00, -0.00, -1.00, 267.2, 10.0)"> </text><text xml:space="preserve" font-family="AvenirNext-Medium" font-size="34.0" fill="#838686" transform="matrix(1.00, 0.00, -0.00, -1.00, 275.7, 10.0)">g</text><text xml:space="preserve" font-family="AvenirNext-Medium" font-size="34.0" fill="#838686" transform="matrix(1.00, 0.00, -0.00, -1.00, 297.1, 10.0)">e</text><text xml:space="preserve" font-family="AvenirNext-Medium" font-size="34.0" fill="#838686" transform="matrix(1.00, 0.00, -0.00, -1.00, 316.4, 10.0)">a</text><text xml:space="preserve" font-family="AvenirNext-Medium" font-size="34.0" fill="#838686" transform="matrix(1.00, 0.00, -0.00, -1.00, 334.8, 10.0)">r</text><text xml:space="preserve" font-family="AvenirNext-Medium" font-size="34.0" fill="#838686" transform="matrix(1.00, 0.00, -0.00, -1.00, 346.5, 10.0)">e</text><text xml:space="preserve" font-family="AvenirNext-Medium" font-size="34.0" fill="#838686" transform="matrix(1.00, 0.00, -0.00, -1.00, 366.0, 10.0)">d</text><text xml:space="preserve" font-family="AvenirNext-Medium" font-size="34.0" fill="#838686" transform="matrix(1.00, 0.00, -0.00, -1.00, 387.6, 10.0)"> </text><text xml:space="preserve" font-family="AvenirNext-Medium" font-size="34.0" fill="#838686" transform="matrix(1.00, 0.00, -0.00, -1.00, 396.1, 10.0)">t</text><text xml:space="preserve" font-family="AvenirNext-Medium" font-size="34.0" fill="#838686" transform="matrix(1.00, 0.00, -0.00, -1.00, 407.3, 10.0)">o</text><text xml:space="preserve" font-family="AvenirNext-Medium" font-size="34.0" fill="#838686" transform="matrix(1.00, 0.00, -0.00, -1.00, 428.0, 10.0)">w</text><text xml:space="preserve" font-family="AvenirNext-Medium" font-size="34.0" fill="#838686" transform="matrix(1.00, 0.00, -0.00, -1.00, 454.3, 10.0)">a</text><text xml:space="preserve" font-family="AvenirNext-Medium" font-size="34.0" fill="#838686" transform="matrix(1.00, 0.00, -0.00, -1.00, 472.8, 10.0)">r</text><text xml:space="preserve" font-family="AvenirNext-Medium" font-size="34.0" fill="#838686" transform="matrix(1.00, 0.00, -0.00, -1.00, 484.4, 10.0)">d</text><text xml:space="preserve" font-family="AvenirNext-Medium" font-size="34.0" fill="#838686" transform="matrix(1.00, 0.00, -0.00, -1.00, 506.0, 10.0)">s</text><text xml:space="preserve" font-family="AvenirNext-Medium" font-size="34.0" fill="#838686" transform="matrix(1.00, 0.00, -0.00, -1.00, 521.1, 10.0)"> </text><text xml:space="preserve" font-family="AvenirNext-Medium" font-size="34.0" fill="#838686" transform="matrix(1.00, 0.00, -0.00, -1.00, 529.6, 10.0)">s</text><text xml:space="preserve" font-family="AvenirNext-Medium" font-size="34.0" fill="#838686" transform="matrix(1.00, 0.00, -0.00, -1.00, 544.7, 10.0)">o</text><text xml:space="preserve" font-family="AvenirNext-Medium" font-size="34.0" fill="#838686" transform="matrix(1.00, 0.00, -0.00, -1.00, 565.5, 10.0)">f</text><text xml:space="preserve" font-family="AvenirNext-Medium" font-size="34.0" fill="#838686" transform="matrix(1.00, 0.00, -0.00, -1.00, 575.5, 10.0)">t</text><text xml:space="preserve" font-family="AvenirNext-Medium" font-size="34.0" fill="#838686" transform="matrix(1.00, 0.00, -0.00, -1.00, 586.7, 10.0)">w</text><text xml:space="preserve" font-family="AvenirNext-Medium" font-size="34.0" fill="#838686" transform="matrix(1.00, 0.00, -0.00, -1.00, 613.0, 10.0)">a</text><text xml:space="preserve" font-family="AvenirNext-Medium" font-size="34.0" fill="#838686" transform="matrix(1.00, 0.00, -0.00, -1.00, 631.4, 10.0)">r</text><text xml:space="preserve" font-family="AvenirNext-Medium" font-size="34.0" fill="#838686" transform="matrix(1.00, 0.00, -0.00, -1.00, 643.1, 10.0)">e</text><text xml:space="preserve" font-family="AvenirNext-Medium" font-size="34.0" fill="#838686" transform="matrix(1.00, 0.00, -0.00, -1.00, 662.6, 10.0)"> </text><text xml:space="preserve" font-family="AvenirNext-Medium" font-size="34.0" fill="#838686" transform="matrix(1.00, 0.00, -0.00, -1.00, 671.1, 10.0)">d</text><text xml:space="preserve" font-family="AvenirNext-Medium" font-size="34.0" fill="#838686" transform="matrix(1.00, 0.00, -0.00, -1.00, 692.7, 10.0)">e</text><text xml:space="preserve" font-family="AvenirNext-Medium" font-size="34.0" fill="#838686" transform="matrix(1.00, 0.00, -0.00, -1.00, 712.1, 10.0)">v</text><text xml:space="preserve" font-family="AvenirNext-Medium" font-size="34.0" fill="#838686" transform="matrix(1.00, 0.00, -0.00, -1.00, 729.3, 10.0)">e</text><text xml:space="preserve" font-family="AvenirNext-Medium" font-size="34.0" fill="#838686" transform="matrix(1.00, 0.00, -0.00, -1.00, 748.8, 10.0)">l</text><text xml:space="preserve" font-family="AvenirNext-Medium" font-size="34.0" fill="#838686" transform="matrix(1.00, 0.00, -0.00, -1.00, 757.6, 10.0)">o</text><text xml:space="preserve" font-family="AvenirNext-Medium" font-size="34.0" fill="#838686" transform="matrix(1.00, 0.00, -0.00, -1.00, 778.3, 10.0)">p</text><text xml:space="preserve" font-family="AvenirNext-Medium" font-size="34.0" fill="#838686" transform="matrix(1.00, 0.00, -0.00, -1.00, 799.9, 10.0)">m</text><text xml:space="preserve" font-family="AvenirNext-Medium" font-size="34.0" fill="#838686" transform="matrix(1.00, 0.00, -0.00, -1.00, 830.1, 10.0)">e</text><text xml:space="preserve" font-family="AvenirNext-Medium" font-size="34.0" fill="#838686" transform="matrix(1.00, 0.00, -0.00, -1.00, 849.5, 10.0)">n</text><text xml:space="preserve" font-family="AvenirNext-Medium" font-size="34.0" fill="#838686" transform="matrix(1.00, 0.00, -0.00, -1.00, 869.3, 10.0)">t</text></g></svg>