<?xml version="1.0" encoding="UTF-8" standalone="no"?><svg xmlns="http://www.w3.org/2000/svg" xmlns:xlink="http://www.w3.org/1999/xlink" clip-rule="evenodd" stroke-miterlimit="4.00" viewBox="0 0 1024 768"><desc>SVG generated by Keynote</desc><defs></defs><g transform="matrix(1.00, 0.00, -0.00, -1.00, 0.0, 768.0)"><g><clipPath id="clip-0"><path d="M 0.0 768.0 L 1024.0 768.0 L 1024.0 0.0 L 0.0 0.0 Z M 0.0 768.0 "></path></clipPath><g clip-path="url(#clip-0)"><image xlink:href="18A399082FD764973FCFCD34E6C980B9.jpeg" width="950.00" height="534.00" transform="matrix(1.44, 0.00, -0.00, -1.44, -171.1, 768.0)"></image><path d="M 0.0 768.0 L 1024.0 768.0 L 1024.0 0.0 L 0.0 0.0 Z M 0.0 768.0 " fill="#212121" fill-opacity="0.80"></path></g></g><path d="M 0.0 0.0 L 960.0 0.0 " fill="none" stroke="#A6AAA9" stroke-width="2.00" transform="matrix(1.00, 0.00, 0.00, -1.00, 32.0, 689.8)"></path><path d="M 46.8 582.0 C 41.4 582.0 37.0 577.6 37.0 572.2 L 37.0 223.8 C 37.0 218.4 41.4 214.0 46.8 214.0 L 794.7 214.0 L 822.1 170.2 L 849.4 214.0 L 977.2 214.0 C 982.6 214.0 987.0 218.4 987.0 223.8 L 987.0 572.2 C 987.0 577.6 982.6 582.0 977.2 582.0 L 46.8 582.0 Z M 46.8 582.0 " fill="#34A4DA"></path><text xml:space="preserve" font-family="DINCondensed-Bold" font-weight="bold" font-size="60.0" fill="#838686" transform="matrix(1.00, 0.00, -0.00, -1.00, 711.3, 107.9)">D</text><text xml:space="preserve" font-family="DINCondensed-Bold" font-weight="bold" font-size="60.0" fill="#838686" transform="matrix(1.00, 0.00, -0.00, -1.00, 736.8, 107.9)">i</text><text xml:space="preserve" font-family="DINCondensed-Bold" font-weight="bold" font-size="60.0" fill="#838686" transform="matrix(1.00, 0.00, -0.00, -1.00, 748.0, 107.9)">c</text><text xml:space="preserve" font-family="DINCondensed-Bold" font-weight="bold" font-size="60.0" fill="#838686" transform="matrix(1.00, 0.00, -0.00, -1.00, 770.2, 107.9)">t</text><text xml:space="preserve" font-family="DINCondensed-Bold" font-weight="bold" font-size="60.0" fill="#838686" transform="matrix(1.00, 0.00, -0.00, -1.00, 782.4, 107.9)">i</text><text xml:space="preserve" font-family="DINCondensed-Bold" font-weight="bold" font-size="60.0" fill="#838686" transform="matrix(1.00, 0.00, -0.00, -1.00, 793.6, 107.9)">o</text><text xml:space="preserve" font-family="DINCondensed-Bold" font-weight="bold" font-size="60.0" fill="#838686" transform="matrix(1.00, 0.00, -0.00, -1.00, 815.8, 107.9)">n</text><text xml:space="preserve" font-family="DINCondensed-Bold" font-weight="bold" font-size="60.0" fill="#838686" transform="matrix(1.00, 0.00, -0.00, -1.00, 839.1, 107.9)">a</text><text xml:space="preserve" font-family="DINCondensed-Bold" font-weight="bold" font-size="60.0" fill="#838686" transform="matrix(1.00, 0.00, -0.00, -1.00, 861.3, 107.9)">r</text><text xml:space="preserve" font-family="DINCondensed-Bold" font-weight="bold" font-size="60.0" fill="#838686" transform="matrix(1.00, 0.00, -0.00, -1.00, 879.1, 107.9)">y</text><text xml:space="preserve" font-family="DINCondensed-Bold" font-weight="bold" font-size="60.0" fill="#838686" transform="matrix(1.00, 0.00, -0.00, -1.00, 896.9, 107.9)">.</text><text xml:space="preserve" font-family="DINCondensed-Bold" font-weight="bold" font-size="60.0" fill="#838686" transform="matrix(1.00, 0.00, -0.00, -1.00, 908.1, 107.9)">c</text><text xml:space="preserve" font-family="DINCondensed-Bold" font-weight="bold" font-size="60.0" fill="#838686" transform="matrix(1.00, 0.00, -0.00, -1.00, 930.3, 107.9)">o</text><text xml:space="preserve" font-family="DINCondensed-Bold" font-weight="bold" font-size="60.0" fill="#838686" transform="matrix(1.00, 0.00, -0.00, -1.00, 952.5, 107.9)">m</text><text xml:space="preserve" font-family="DINAlternate-Bold" font-weight="bold" font-size="24.0" fill="#838686" transform="matrix(1.00, 0.00, -0.00, -1.00, 36.0, 705.0)">D</text><text xml:space="preserve" font-family="DINAlternate-Bold" font-weight="bold" font-size="24.0" fill="#838686" transform="matrix(1.00, 0.00, -0.00, -1.00, 52.3, 705.0)">E</text><text xml:space="preserve" font-family="DINAlternate-Bold" font-weight="bold" font-size="24.0" fill="#838686" transform="matrix(1.00, 0.00, -0.00, -1.00, 66.9, 705.0)">F</text><text xml:space="preserve" font-family="DINAlternate-Bold" font-weight="bold" font-size="24.0" fill="#838686" transform="matrix(1.00, 0.00, -0.00, -1.00, 80.9, 705.0)">I</text><text xml:space="preserve" font-family="DINAlternate-Bold" font-weight="bold" font-size="24.0" fill="#838686" transform="matrix(1.00, 0.00, -0.00, -1.00, 88.3, 705.0)">N</text><text xml:space="preserve" font-family="DINAlternate-Bold" font-weight="bold" font-size="24.0" fill="#838686" transform="matrix(1.00, 0.00, -0.00, -1.00, 105.9, 705.0)">I</text><text xml:space="preserve" font-family="DINAlternate-Bold" font-weight="bold" font-size="24.0" fill="#838686" transform="matrix(1.00, 0.00, -0.00, -1.00, 113.3, 705.0)">T</text><text xml:space="preserve" font-family="DINAlternate-Bold" font-weight="bold" font-size="24.0" fill="#838686" transform="matrix(1.00, 0.00, -0.00, -1.00, 126.5, 705.0)">I</text><text xml:space="preserve" font-family="DINAlternate-Bold" font-weight="bold" font-size="24.0" fill="#838686" transform="matrix(1.00, 0.00, -0.00, -1.00, 133.9, 705.0)">O</text><text xml:space="preserve" font-family="DINAlternate-Bold" font-weight="bold" font-size="24.0" fill="#838686" transform="matrix(1.00, 0.00, -0.00, -1.00, 149.8, 705.0)">N</text><text xml:space="preserve" font-family="DINAlternate-Bold" font-weight="bold" font-size="24.0" fill="#838686" transform="matrix(1.00, 0.00, -0.00, -1.00, 976.1, 707.4)">3</text></g></svg>