<?xml version="1.0" encoding="UTF-8" standalone="no"?><svg xmlns="http://www.w3.org/2000/svg" xmlns:xlink="http://www.w3.org/1999/xlink" clip-rule="evenodd" stroke-miterlimit="4.00" viewBox="0 0 1024 768"><desc>SVG generated by Keynote</desc><defs></defs><g transform="matrix(1.00, 0.00, -0.00, -1.00, 0.0, 768.0)"><path d="M 0.0 768.0 L 1024.0 768.0 L 1024.0 0.0 L 0.0 0.0 Z M 0.0 768.0 " fill="#212121"></path><path d="M 0.0 0.0 L 960.0 0.0 " fill="none" stroke="#A6AAA9" stroke-width="2.00" transform="matrix(1.00, 0.00, 0.00, -1.00, 32.0, 689.8)"></path><text xml:space="preserve" font-family="DINAlternate-Bold" font-weight="bold" font-size="24.0" fill="#838686" transform="matrix(1.00, 0.00, -0.00, -1.00, 36.0, 705.0)">O</text><text xml:space="preserve" font-family="DINAlternate-Bold" font-weight="bold" font-size="24.0" fill="#838686" transform="matrix(1.00, 0.00, -0.00, -1.00, 51.8, 705.0)">U</text><text xml:space="preserve" font-family="DINAlternate-Bold" font-weight="bold" font-size="24.0" fill="#838686" transform="matrix(1.00, 0.00, -0.00, -1.00, 68.1, 705.0)">R</text><text xml:space="preserve" font-family="DINAlternate-Bold" font-weight="bold" font-size="24.0" fill="#838686" transform="matrix(1.00, 0.00, -0.00, -1.00, 84.0, 705.0)"> </text><text xml:space="preserve" font-family="DINAlternate-Bold" font-weight="bold" font-size="24.0" fill="#838686" transform="matrix(1.00, 0.00, -0.00, -1.00, 90.9, 705.0)">R</text><text xml:space="preserve" font-family="DINAlternate-Bold" font-weight="bold" font-size="24.0" fill="#838686" transform="matrix(1.00, 0.00, -0.00, -1.00, 106.8, 705.0)">E</text><text xml:space="preserve" font-family="DINAlternate-Bold" font-weight="bold" font-size="24.0" fill="#838686" transform="matrix(1.00, 0.00, -0.00, -1.00, 121.3, 705.0)">C</text><text xml:space="preserve" font-family="DINAlternate-Bold" font-weight="bold" font-size="24.0" fill="#838686" transform="matrix(1.00, 0.00, -0.00, -1.00, 135.9, 705.0)">O</text><text xml:space="preserve" font-family="DINAlternate-Bold" font-weight="bold" font-size="24.0" fill="#838686" transform="matrix(1.00, 0.00, -0.00, -1.00, 151.7, 705.0)">M</text><text xml:space="preserve" font-family="DINAlternate-Bold" font-weight="bold" font-size="24.0" fill="#838686" transform="matrix(1.00, 0.00, -0.00, -1.00, 171.1, 705.0)">M</text><text xml:space="preserve" font-family="DINAlternate-Bold" font-weight="bold" font-size="24.0" fill="#838686" transform="matrix(1.00, 0.00, -0.00, -1.00, 190.5, 705.0)">E</text><text xml:space="preserve" font-family="DINAlternate-Bold" font-weight="bold" font-size="24.0" fill="#838686" transform="matrix(1.00, 0.00, -0.00, -1.00, 205.0, 705.0)">N</text><text xml:space="preserve" font-family="DINAlternate-Bold" font-weight="bold" font-size="24.0" fill="#838686" transform="matrix(1.00, 0.00, -0.00, -1.00, 222.6, 705.0)">D</text><text xml:space="preserve" font-family="DINAlternate-Bold" font-weight="bold" font-size="24.0" fill="#838686" transform="matrix(1.00, 0.00, -0.00, -1.00, 238.5, 705.0)">A</text><text xml:space="preserve" font-family="DINAlternate-Bold" font-weight="bold" font-size="24.0" fill="#838686" transform="matrix(1.00, 0.00, -0.00, -1.00, 252.6, 705.0)">T</text><text xml:space="preserve" font-family="DINAlternate-Bold" font-weight="bold" font-size="24.0" fill="#838686" transform="matrix(1.00, 0.00, -0.00, -1.00, 265.8, 705.0)">I</text><text xml:space="preserve" font-family="DINAlternate-Bold" font-weight="bold" font-size="24.0" fill="#838686" transform="matrix(1.00, 0.00, -0.00, -1.00, 273.1, 705.0)">O</text><text xml:space="preserve" font-family="DINAlternate-Bold" font-weight="bold" font-size="24.0" fill="#838686" transform="matrix(1.00, 0.00, -0.00, -1.00, 289.0, 705.0)">N</text><text xml:space="preserve" font-family="DINAlternate-Bold" font-weight="bold" font-size="24.0" fill="#838686" transform="matrix(1.00, 0.00, -0.00, -1.00, 306.6, 705.0)">S</text><g><clipPath id="clip-22"><path d="M 560.0 647.0 L 992.0 647.0 L 992.0 33.0 L 560.0 33.0 Z M 560.0 647.0 "></path></clipPath><g clip-path="url(#clip-22)"><image xlink:href="../../420F9310-F0B3-403E-B850-F7CC1198D883/assets/7EDC3277032F55A0C84D02B10B3CBB12.png" width="929.00" height="614.00" transform="matrix(1.00, 0.00, -0.00, -1.00, 312.0, 647.0)"></image></g></g><text xml:space="preserve" font-family="DINCondensed-Bold" font-weight="bold" font-size="48.0" fill="#34A4DA" transform="matrix(1.00, 0.00, -0.00, -1.00, 36.0, 608.0)">W</text><text xml:space="preserve" font-family="DINCondensed-Bold" font-weight="bold" font-size="48.0" fill="#34A4DA" transform="matrix(1.00, 0.00, -0.00, -1.00, 64.5, 608.0)">H</text><text xml:space="preserve" font-family="DINCondensed-Bold" font-weight="bold" font-size="48.0" fill="#34A4DA" transform="matrix(1.00, 0.00, -0.00, -1.00, 84.9, 608.0)">A</text><text xml:space="preserve" font-family="DINCondensed-Bold" font-weight="bold" font-size="48.0" fill="#34A4DA" transform="matrix(1.00, 0.00, -0.00, -1.00, 101.8, 608.0)">T</text><text xml:space="preserve" font-family="DINCondensed-Bold" font-weight="bold" font-size="48.0" fill="#34A4DA" transform="matrix(1.00, 0.00, -0.00, -1.00, 126.7, 608.0)">W</text><text xml:space="preserve" font-family="DINCondensed-Bold" font-weight="bold" font-size="48.0" fill="#34A4DA" transform="matrix(1.00, 0.00, -0.00, -1.00, 155.1, 608.0)">E</text><text xml:space="preserve" font-family="DINCondensed-Bold" font-weight="bold" font-size="48.0" fill="#34A4DA" transform="matrix(1.00, 0.00, -0.00, -1.00, 181.8, 608.0)">R</text><text xml:space="preserve" font-family="DINCondensed-Bold" font-weight="bold" font-size="48.0" fill="#34A4DA" transform="matrix(1.00, 0.00, -0.00, -1.00, 202.3, 608.0)">E</text><text xml:space="preserve" font-family="DINCondensed-Bold" font-weight="bold" font-size="48.0" fill="#34A4DA" transform="matrix(1.00, 0.00, -0.00, -1.00, 220.0, 608.0)">C</text><text xml:space="preserve" font-family="DINCondensed-Bold" font-weight="bold" font-size="48.0" fill="#34A4DA" transform="matrix(1.00, 0.00, -0.00, -1.00, 239.6, 608.0)">O</text><text xml:space="preserve" font-family="DINCondensed-Bold" font-weight="bold" font-size="48.0" fill="#34A4DA" transform="matrix(1.00, 0.00, -0.00, -1.00, 260.0, 608.0)">M</text><text xml:space="preserve" font-family="DINCondensed-Bold" font-weight="bold" font-size="48.0" fill="#34A4DA" transform="matrix(1.00, 0.00, -0.00, -1.00, 286.7, 608.0)">M</text><text xml:space="preserve" font-family="DINCondensed-Bold" font-weight="bold" font-size="48.0" fill="#34A4DA" transform="matrix(1.00, 0.00, -0.00, -1.00, 313.4, 608.0)">E</text><text xml:space="preserve" font-family="DINCondensed-Bold" font-weight="bold" font-size="48.0" fill="#34A4DA" transform="matrix(1.00, 0.00, -0.00, -1.00, 331.2, 608.0)">N</text><text xml:space="preserve" font-family="DINCondensed-Bold" font-weight="bold" font-size="48.0" fill="#34A4DA" transform="matrix(1.00, 0.00, -0.00, -1.00, 352.5, 608.0)">D</text><text xml:space="preserve" font-family="LucidaGrande" font-size="29.4" fill="#34A4DA" transform="matrix(1.00, 0.00, -0.00, -1.00, 36.0, 518.2)">▸</text><text xml:space="preserve" font-family="AvenirNext-Medium" font-size="28.0" fill="#838686" transform="matrix(1.00, 0.00, -0.00, -1.00, 71.0, 520.0)">S</text><text xml:space="preserve" font-family="AvenirNext-Medium" font-size="28.0" fill="#838686" transform="matrix(1.00, 0.00, -0.00, -1.00, 86.9, 520.0)">o</text><text xml:space="preserve" font-family="AvenirNext-Medium" font-size="28.0" fill="#838686" transform="matrix(1.00, 0.00, -0.00, -1.00, 104.0, 520.0)">f</text><text xml:space="preserve" font-family="AvenirNext-Medium" font-size="28.0" fill="#838686" transform="matrix(1.00, 0.00, -0.00, -1.00, 112.3, 520.0)">t</text><text xml:space="preserve" font-family="AvenirNext-Medium" font-size="28.0" fill="#838686" transform="matrix(1.00, 0.00, -0.00, -1.00, 121.5, 520.0)">w</text><text xml:space="preserve" font-family="AvenirNext-Medium" font-size="28.0" fill="#838686" transform="matrix(1.00, 0.00, -0.00, -1.00, 143.1, 520.0)">a</text><text xml:space="preserve" font-family="AvenirNext-Medium" font-size="28.0" fill="#838686" transform="matrix(1.00, 0.00, -0.00, -1.00, 158.3, 520.0)">r</text><text xml:space="preserve" font-family="AvenirNext-Medium" font-size="28.0" fill="#838686" transform="matrix(1.00, 0.00, -0.00, -1.00, 167.9, 520.0)">e</text><text xml:space="preserve" font-family="AvenirNext-Medium" font-size="28.0" fill="#838686" transform="matrix(1.00, 0.00, -0.00, -1.00, 184.0, 520.0)"> </text><text xml:space="preserve" font-family="AvenirNext-Medium" font-size="28.0" fill="#838686" transform="matrix(1.00, 0.00, -0.00, -1.00, 191.0, 520.0)">a</text><text xml:space="preserve" font-family="AvenirNext-Medium" font-size="28.0" fill="#838686" transform="matrix(1.00, 0.00, -0.00, -1.00, 206.2, 520.0)">s</text><text xml:space="preserve" font-family="AvenirNext-Medium" font-size="28.0" fill="#838686" transform="matrix(1.00, 0.00, -0.00, -1.00, 218.6, 520.0)"> </text><text xml:space="preserve" font-family="AvenirNext-Medium" font-size="28.0" fill="#838686" transform="matrix(1.00, 0.00, -0.00, -1.00, 225.1, 520.0)">A</text><text xml:space="preserve" font-family="AvenirNext-Medium" font-size="28.0" fill="#838686" transform="matrix(1.00, 0.00, -0.00, -1.00, 244.5, 520.0)"> </text><text xml:space="preserve" font-family="AvenirNext-Medium" font-size="28.0" fill="#838686" transform="matrix(1.00, 0.00, -0.00, -1.00, 251.5, 520.0)">S</text><text xml:space="preserve" font-family="AvenirNext-Medium" font-size="28.0" fill="#838686" transform="matrix(1.00, 0.00, -0.00, -1.00, 267.4, 520.0)">e</text><text xml:space="preserve" font-family="AvenirNext-Medium" font-size="28.0" fill="#838686" transform="matrix(1.00, 0.00, -0.00, -1.00, 283.5, 520.0)">r</text><text xml:space="preserve" font-family="AvenirNext-Medium" font-size="28.0" fill="#838686" transform="matrix(1.00, 0.00, -0.00, -1.00, 293.6, 520.0)">v</text><text xml:space="preserve" font-family="AvenirNext-Medium" font-size="28.0" fill="#838686" transform="matrix(1.00, 0.00, -0.00, -1.00, 307.7, 520.0)">i</text><text xml:space="preserve" font-family="AvenirNext-Medium" font-size="28.0" fill="#838686" transform="matrix(1.00, 0.00, -0.00, -1.00, 315.0, 520.0)">c</text><text xml:space="preserve" font-family="AvenirNext-Medium" font-size="28.0" fill="#838686" transform="matrix(1.00, 0.00, -0.00, -1.00, 328.8, 520.0)">e</text><text xml:space="preserve" font-family="LucidaGrande" font-size="29.4" fill="#34A4DA" transform="matrix(1.00, 0.00, -0.00, -1.00, 71.0, 452.2)">▸</text><text xml:space="preserve" font-family="AvenirNext-Medium" font-size="28.0" fill="#838686" transform="matrix(1.00, 0.00, -0.00, -1.00, 106.0, 454.0)">A</text><text xml:space="preserve" font-family="AvenirNext-Medium" font-size="28.0" fill="#838686" transform="matrix(1.00, 0.00, -0.00, -1.00, 125.9, 454.0)">l</text><text xml:space="preserve" font-family="AvenirNext-Medium" font-size="28.0" fill="#838686" transform="matrix(1.00, 0.00, -0.00, -1.00, 133.2, 454.0)">l</text><text xml:space="preserve" font-family="AvenirNext-Medium" font-size="28.0" fill="#838686" transform="matrix(1.00, 0.00, -0.00, -1.00, 140.5, 454.0)">o</text><text xml:space="preserve" font-family="AvenirNext-Medium" font-size="28.0" fill="#838686" transform="matrix(1.00, 0.00, -0.00, -1.00, 157.5, 454.0)">w</text><text xml:space="preserve" font-family="AvenirNext-Medium" font-size="28.0" fill="#838686" transform="matrix(1.00, 0.00, -0.00, -1.00, 179.2, 454.0)"> </text><text xml:space="preserve" font-family="AvenirNext-Medium" font-size="28.0" fill="#838686" transform="matrix(1.00, 0.00, -0.00, -1.00, 186.2, 454.0)">w</text><text xml:space="preserve" font-family="AvenirNext-Medium" font-size="28.0" fill="#838686" transform="matrix(1.00, 0.00, -0.00, -1.00, 207.8, 454.0)">e</text><text xml:space="preserve" font-family="AvenirNext-Medium" font-size="28.0" fill="#838686" transform="matrix(1.00, 0.00, -0.00, -1.00, 223.9, 454.0)">b</text><text xml:space="preserve" font-family="AvenirNext-Medium" font-size="28.0" fill="#838686" transform="matrix(1.00, 0.00, -0.00, -1.00, 241.7, 454.0)"> </text><text xml:space="preserve" font-family="AvenirNext-Medium" font-size="28.0" fill="#838686" transform="matrix(1.00, 0.00, -0.00, -1.00, 248.7, 454.0)">b</text><text xml:space="preserve" font-family="AvenirNext-Medium" font-size="28.0" fill="#838686" transform="matrix(1.00, 0.00, -0.00, -1.00, 266.5, 454.0)">a</text><text xml:space="preserve" font-family="AvenirNext-Medium" font-size="28.0" fill="#838686" transform="matrix(1.00, 0.00, -0.00, -1.00, 281.7, 454.0)">s</text><text xml:space="preserve" font-family="AvenirNext-Medium" font-size="28.0" fill="#838686" transform="matrix(1.00, 0.00, -0.00, -1.00, 294.1, 454.0)">e</text><text xml:space="preserve" font-family="AvenirNext-Medium" font-size="28.0" fill="#838686" transform="matrix(1.00, 0.00, -0.00, -1.00, 310.1, 454.0)">d</text><text xml:space="preserve" font-family="AvenirNext-Medium" font-size="28.0" fill="#838686" transform="matrix(1.00, 0.00, -0.00, -1.00, 327.9, 454.0)"> </text><text xml:space="preserve" font-family="AvenirNext-Medium" font-size="28.0" fill="#838686" transform="matrix(1.00, 0.00, -0.00, -1.00, 334.9, 454.0)">a</text><text xml:space="preserve" font-family="AvenirNext-Medium" font-size="28.0" fill="#838686" transform="matrix(1.00, 0.00, -0.00, -1.00, 350.1, 454.0)">p</text><text xml:space="preserve" font-family="AvenirNext-Medium" font-size="28.0" fill="#838686" transform="matrix(1.00, 0.00, -0.00, -1.00, 367.9, 454.0)">p</text><text xml:space="preserve" font-family="AvenirNext-Medium" font-size="28.0" fill="#838686" transform="matrix(1.00, 0.00, -0.00, -1.00, 385.6, 454.0)">l</text><text xml:space="preserve" font-family="AvenirNext-Medium" font-size="28.0" fill="#838686" transform="matrix(1.00, 0.00, -0.00, -1.00, 392.9, 454.0)">i</text><text xml:space="preserve" font-family="AvenirNext-Medium" font-size="28.0" fill="#838686" transform="matrix(1.00, 0.00, -0.00, -1.00, 400.1, 454.0)">c</text><text xml:space="preserve" font-family="AvenirNext-Medium" font-size="28.0" fill="#838686" transform="matrix(1.00, 0.00, -0.00, -1.00, 414.0, 454.0)">a</text><text xml:space="preserve" font-family="AvenirNext-Medium" font-size="28.0" fill="#838686" transform="matrix(1.00, 0.00, -0.00, -1.00, 428.9, 454.0)">t</text><text xml:space="preserve" font-family="AvenirNext-Medium" font-size="28.0" fill="#838686" transform="matrix(1.00, 0.00, -0.00, -1.00, 438.1, 454.0)">i</text><text xml:space="preserve" font-family="AvenirNext-Medium" font-size="28.0" fill="#838686" transform="matrix(1.00, 0.00, -0.00, -1.00, 445.3, 454.0)">o</text><text xml:space="preserve" font-family="AvenirNext-Medium" font-size="28.0" fill="#838686" transform="matrix(1.00, 0.00, -0.00, -1.00, 462.4, 454.0)">n</text><text xml:space="preserve" font-family="AvenirNext-Medium" font-size="28.0" fill="#838686" transform="matrix(1.00, 0.00, -0.00, -1.00, 478.7, 454.0)">s</text><text xml:space="preserve" font-family="LucidaGrande" font-size="29.4" fill="#34A4DA" transform="matrix(1.00, 0.00, -0.00, -1.00, 71.0, 386.2)">▸</text><text xml:space="preserve" font-family="AvenirNext-Medium" font-size="28.0" fill="#838686" transform="matrix(1.00, 0.00, -0.00, -1.00, 106.0, 388.0)">A</text><text xml:space="preserve" font-family="AvenirNext-Medium" font-size="28.0" fill="#838686" transform="matrix(1.00, 0.00, -0.00, -1.00, 125.9, 388.0)">c</text><text xml:space="preserve" font-family="AvenirNext-Medium" font-size="28.0" fill="#838686" transform="matrix(1.00, 0.00, -0.00, -1.00, 139.7, 388.0)">c</text><text xml:space="preserve" font-family="AvenirNext-Medium" font-size="28.0" fill="#838686" transform="matrix(1.00, 0.00, -0.00, -1.00, 153.6, 388.0)">e</text><text xml:space="preserve" font-family="AvenirNext-Medium" font-size="28.0" fill="#838686" transform="matrix(1.00, 0.00, -0.00, -1.00, 169.6, 388.0)">s</text><text xml:space="preserve" font-family="AvenirNext-Medium" font-size="28.0" fill="#838686" transform="matrix(1.00, 0.00, -0.00, -1.00, 182.0, 388.0)">s</text><text xml:space="preserve" font-family="AvenirNext-Medium" font-size="28.0" fill="#838686" transform="matrix(1.00, 0.00, -0.00, -1.00, 194.5, 388.0)">i</text><text xml:space="preserve" font-family="AvenirNext-Medium" font-size="28.0" fill="#838686" transform="matrix(1.00, 0.00, -0.00, -1.00, 201.7, 388.0)">b</text><text xml:space="preserve" font-family="AvenirNext-Medium" font-size="28.0" fill="#838686" transform="matrix(1.00, 0.00, -0.00, -1.00, 219.5, 388.0)">l</text><text xml:space="preserve" font-family="AvenirNext-Medium" font-size="28.0" fill="#838686" transform="matrix(1.00, 0.00, -0.00, -1.00, 226.8, 388.0)">e</text><text xml:space="preserve" font-family="AvenirNext-Medium" font-size="28.0" fill="#838686" transform="matrix(1.00, 0.00, -0.00, -1.00, 242.9, 388.0)"> </text><text xml:space="preserve" font-family="AvenirNext-Medium" font-size="28.0" fill="#838686" transform="matrix(1.00, 0.00, -0.00, -1.00, 249.9, 388.0)">f</text><text xml:space="preserve" font-family="AvenirNext-Medium" font-size="28.0" fill="#838686" transform="matrix(1.00, 0.00, -0.00, -1.00, 258.5, 388.0)">r</text><text xml:space="preserve" font-family="AvenirNext-Medium" font-size="28.0" fill="#838686" transform="matrix(1.00, 0.00, -0.00, -1.00, 268.2, 388.0)">o</text><text xml:space="preserve" font-family="AvenirNext-Medium" font-size="28.0" fill="#838686" transform="matrix(1.00, 0.00, -0.00, -1.00, 285.3, 388.0)">m</text><text xml:space="preserve" font-family="AvenirNext-Medium" font-size="28.0" fill="#838686" transform="matrix(1.00, 0.00, -0.00, -1.00, 310.1, 388.0)"> </text><text xml:space="preserve" font-family="AvenirNext-Medium" font-size="28.0" fill="#838686" transform="matrix(1.00, 0.00, -0.00, -1.00, 317.1, 388.0)">a</text><text xml:space="preserve" font-family="AvenirNext-Medium" font-size="28.0" fill="#838686" transform="matrix(1.00, 0.00, -0.00, -1.00, 332.3, 388.0)">n</text><text xml:space="preserve" font-family="AvenirNext-Medium" font-size="28.0" fill="#838686" transform="matrix(1.00, 0.00, -0.00, -1.00, 348.6, 388.0)">y</text><text xml:space="preserve" font-family="AvenirNext-Medium" font-size="28.0" fill="#838686" transform="matrix(1.00, 0.00, -0.00, -1.00, 362.7, 388.0)">w</text><text xml:space="preserve" font-family="AvenirNext-Medium" font-size="28.0" fill="#838686" transform="matrix(1.00, 0.00, -0.00, -1.00, 384.3, 388.0)">h</text><text xml:space="preserve" font-family="AvenirNext-Medium" font-size="28.0" fill="#838686" transform="matrix(1.00, 0.00, -0.00, -1.00, 400.7, 388.0)">e</text><text xml:space="preserve" font-family="AvenirNext-Medium" font-size="28.0" fill="#838686" transform="matrix(1.00, 0.00, -0.00, -1.00, 416.7, 388.0)">r</text><text xml:space="preserve" font-family="AvenirNext-Medium" font-size="28.0" fill="#838686" transform="matrix(1.00, 0.00, -0.00, -1.00, 426.3, 388.0)">e</text><text xml:space="preserve" font-family="LucidaGrande" font-size="29.4" fill="#34A4DA" transform="matrix(1.00, 0.00, -0.00, -1.00, 71.0, 320.2)">▸</text><text xml:space="preserve" font-family="AvenirNext-Medium" font-size="28.0" fill="#838686" transform="matrix(1.00, 0.00, -0.00, -1.00, 106.0, 322.0)">N</text><text xml:space="preserve" font-family="AvenirNext-Medium" font-size="28.0" fill="#838686" transform="matrix(1.00, 0.00, -0.00, -1.00, 127.6, 322.0)">e</text><text xml:space="preserve" font-family="AvenirNext-Medium" font-size="28.0" fill="#838686" transform="matrix(1.00, 0.00, -0.00, -1.00, 143.7, 322.0)">v</text><text xml:space="preserve" font-family="AvenirNext-Medium" font-size="28.0" fill="#838686" transform="matrix(1.00, 0.00, -0.00, -1.00, 157.8, 322.0)">e</text><text xml:space="preserve" font-family="AvenirNext-Medium" font-size="28.0" fill="#838686" transform="matrix(1.00, 0.00, -0.00, -1.00, 173.8, 322.0)">r</text><text xml:space="preserve" font-family="AvenirNext-Medium" font-size="28.0" fill="#838686" transform="matrix(1.00, 0.00, -0.00, -1.00, 184.0, 322.0)"> </text><text xml:space="preserve" font-family="AvenirNext-Medium" font-size="28.0" fill="#838686" transform="matrix(1.00, 0.00, -0.00, -1.00, 191.0, 322.0)">t</text><text xml:space="preserve" font-family="AvenirNext-Medium" font-size="28.0" fill="#838686" transform="matrix(1.00, 0.00, -0.00, -1.00, 200.2, 322.0)">i</text><text xml:space="preserve" font-family="AvenirNext-Medium" font-size="28.0" fill="#838686" transform="matrix(1.00, 0.00, -0.00, -1.00, 207.4, 322.0)">e</text><text xml:space="preserve" font-family="AvenirNext-Medium" font-size="28.0" fill="#838686" transform="matrix(1.00, 0.00, -0.00, -1.00, 223.5, 322.0)">d</text><text xml:space="preserve" font-family="AvenirNext-Medium" font-size="28.0" fill="#838686" transform="matrix(1.00, 0.00, -0.00, -1.00, 241.2, 322.0)"> </text><text xml:space="preserve" font-family="AvenirNext-Medium" font-size="28.0" fill="#838686" transform="matrix(1.00, 0.00, -0.00, -1.00, 248.2, 322.0)">t</text><text xml:space="preserve" font-family="AvenirNext-Medium" font-size="28.0" fill="#838686" transform="matrix(1.00, 0.00, -0.00, -1.00, 257.5, 322.0)">o</text><text xml:space="preserve" font-family="AvenirNext-Medium" font-size="28.0" fill="#838686" transform="matrix(1.00, 0.00, -0.00, -1.00, 274.5, 322.0)"> </text><text xml:space="preserve" font-family="AvenirNext-Medium" font-size="28.0" fill="#838686" transform="matrix(1.00, 0.00, -0.00, -1.00, 281.5, 322.0)">a</text><text xml:space="preserve" font-family="AvenirNext-Medium" font-size="28.0" fill="#838686" transform="matrix(1.00, 0.00, -0.00, -1.00, 296.7, 322.0)"> </text><text xml:space="preserve" font-family="AvenirNext-Medium" font-size="28.0" fill="#838686" transform="matrix(1.00, 0.00, -0.00, -1.00, 303.7, 322.0)">d</text><text xml:space="preserve" font-family="AvenirNext-Medium" font-size="28.0" fill="#838686" transform="matrix(1.00, 0.00, -0.00, -1.00, 321.5, 322.0)">e</text><text xml:space="preserve" font-family="AvenirNext-Medium" font-size="28.0" fill="#838686" transform="matrix(1.00, 0.00, -0.00, -1.00, 337.5, 322.0)">v</text><text xml:space="preserve" font-family="AvenirNext-Medium" font-size="28.0" fill="#838686" transform="matrix(1.00, 0.00, -0.00, -1.00, 351.6, 322.0)">i</text><text xml:space="preserve" font-family="AvenirNext-Medium" font-size="28.0" fill="#838686" transform="matrix(1.00, 0.00, -0.00, -1.00, 358.9, 322.0)">c</text><text xml:space="preserve" font-family="AvenirNext-Medium" font-size="28.0" fill="#838686" transform="matrix(1.00, 0.00, -0.00, -1.00, 372.7, 322.0)">e</text><text xml:space="preserve" font-family="LucidaGrande" font-size="29.4" fill="#34A4DA" transform="matrix(1.00, 0.00, -0.00, -1.00, 36.0, 254.2)">▸</text><text xml:space="preserve" font-family="AvenirNext-Medium" font-size="28.0" fill="#838686" transform="matrix(1.00, 0.00, -0.00, -1.00, 71.0, 256.0)">M</text><text xml:space="preserve" font-family="AvenirNext-Medium" font-size="28.0" fill="#838686" transform="matrix(1.00, 0.00, -0.00, -1.00, 96.3, 256.0)">o</text><text xml:space="preserve" font-family="AvenirNext-Medium" font-size="28.0" fill="#838686" transform="matrix(1.00, 0.00, -0.00, -1.00, 113.4, 256.0)">r</text><text xml:space="preserve" font-family="AvenirNext-Medium" font-size="28.0" fill="#838686" transform="matrix(1.00, 0.00, -0.00, -1.00, 123.0, 256.0)">e</text><text xml:space="preserve" font-family="AvenirNext-Medium" font-size="28.0" fill="#838686" transform="matrix(1.00, 0.00, -0.00, -1.00, 139.0, 256.0)"> </text><text xml:space="preserve" font-family="AvenirNext-Medium" font-size="28.0" fill="#838686" transform="matrix(1.00, 0.00, -0.00, -1.00, 146.0, 256.0)">t</text><text xml:space="preserve" font-family="AvenirNext-Medium" font-size="28.0" fill="#838686" transform="matrix(1.00, 0.00, -0.00, -1.00, 155.3, 256.0)">h</text><text xml:space="preserve" font-family="AvenirNext-Medium" font-size="28.0" fill="#838686" transform="matrix(1.00, 0.00, -0.00, -1.00, 171.6, 256.0)">e</text><text xml:space="preserve" font-family="AvenirNext-Medium" font-size="28.0" fill="#838686" transform="matrix(1.00, 0.00, -0.00, -1.00, 187.6, 256.0)">n</text><text xml:space="preserve" font-family="AvenirNext-Medium" font-size="28.0" fill="#838686" transform="matrix(1.00, 0.00, -0.00, -1.00, 203.9, 256.0)"> </text><text xml:space="preserve" font-family="AvenirNext-Medium" font-size="28.0" fill="#838686" transform="matrix(1.00, 0.00, -0.00, -1.00, 210.9, 256.0)">j</text><text xml:space="preserve" font-family="AvenirNext-Medium" font-size="28.0" fill="#838686" transform="matrix(1.00, 0.00, -0.00, -1.00, 218.2, 256.0)">u</text><text xml:space="preserve" font-family="AvenirNext-Medium" font-size="28.0" fill="#838686" transform="matrix(1.00, 0.00, -0.00, -1.00, 234.5, 256.0)">s</text><text xml:space="preserve" font-family="AvenirNext-Medium" font-size="28.0" fill="#838686" transform="matrix(1.00, 0.00, -0.00, -1.00, 247.0, 256.0)">t</text><text xml:space="preserve" font-family="AvenirNext-Medium" font-size="28.0" fill="#838686" transform="matrix(1.00, 0.00, -0.00, -1.00, 256.2, 256.0)"> </text><text xml:space="preserve" font-family="AvenirNext-Medium" font-size="28.0" fill="#838686" transform="matrix(1.00, 0.00, -0.00, -1.00, 263.2, 256.0)">o</text><text xml:space="preserve" font-family="AvenirNext-Medium" font-size="28.0" fill="#838686" transform="matrix(1.00, 0.00, -0.00, -1.00, 280.2, 256.0)">u</text><text xml:space="preserve" font-family="AvenirNext-Medium" font-size="28.0" fill="#838686" transform="matrix(1.00, 0.00, -0.00, -1.00, 296.5, 256.0)">r</text><text xml:space="preserve" font-family="AvenirNext-Medium" font-size="28.0" fill="#838686" transform="matrix(1.00, 0.00, -0.00, -1.00, 306.7, 256.0)"> </text><text xml:space="preserve" font-family="AvenirNext-Medium" font-size="28.0" fill="#838686" transform="matrix(1.00, 0.00, -0.00, -1.00, 313.7, 256.0)">e</text><text xml:space="preserve" font-family="AvenirNext-Medium" font-size="28.0" fill="#838686" transform="matrix(1.00, 0.00, -0.00, -1.00, 329.4, 256.0)">x</text><text xml:space="preserve" font-family="AvenirNext-Medium" font-size="28.0" fill="#838686" transform="matrix(1.00, 0.00, -0.00, -1.00, 343.7, 256.0)">a</text><text xml:space="preserve" font-family="AvenirNext-Medium" font-size="28.0" fill="#838686" transform="matrix(1.00, 0.00, -0.00, -1.00, 358.9, 256.0)">m</text><text xml:space="preserve" font-family="AvenirNext-Medium" font-size="28.0" fill="#838686" transform="matrix(1.00, 0.00, -0.00, -1.00, 383.8, 256.0)">p</text><text xml:space="preserve" font-family="AvenirNext-Medium" font-size="28.0" fill="#838686" transform="matrix(1.00, 0.00, -0.00, -1.00, 401.5, 256.0)">l</text><text xml:space="preserve" font-family="AvenirNext-Medium" font-size="28.0" fill="#838686" transform="matrix(1.00, 0.00, -0.00, -1.00, 408.8, 256.0)">e</text><text xml:space="preserve" font-family="AvenirNext-Medium" font-size="28.0" fill="#838686" transform="matrix(1.00, 0.00, -0.00, -1.00, 424.8, 256.0)">s</text><text xml:space="preserve" font-family="DINAlternate-Bold" font-weight="bold" font-size="24.0" fill="#838686" transform="matrix(1.00, 0.00, -0.00, -1.00, 964.6, 707.4)">1</text><text xml:space="preserve" font-family="DINAlternate-Bold" font-weight="bold" font-size="24.0" fill="#838686" transform="matrix(1.00, 0.00, -0.00, -1.00, 976.1, 707.4)">6</text></g></svg>